<?xml version="1.0" encoding="iso-8859-1"?>
<!-- Generator: Adobe Illustrator 19.0.0, SVG Export Plug-In . SVG Version: 6.00 Build 0)  -->
<svg version="1.1" id="Capa_1" xmlns="http://www.w3.org/2000/svg" xmlns:xlink="http://www.w3.org/1999/xlink" x="0px" y="0px"
	 viewBox="0 0 496 496" style="enable-background:new 0 0 496 496;" xml:space="preserve">
<g>
	<g>
		<g>
			<path d="M248,0C111.248,0,0,111.256,0,248s111.248,248,248,248s248-111.256,248-248S384.752,0,248,0z M248,480
				C120.08,480,16,375.928,16,248S120.08,16,248,16s232,104.072,232,232S375.92,480,248,480z"/>
			<path d="M387.736,83.344C348.76,50.232,299.136,32,248,32C128.896,32,32,128.896,32,248c0,51.136,18.232,100.76,51.352,139.736
				l5.616,6.616L394.344,88.968L387.736,83.344z M244.312,216.376c-19.072,1.776-34.16,16.864-35.936,35.936l-13.168,13.168
				c-22.664-22.96-58.552-28.312-87.128-11.832c-5.664,3.272-10.792,7.272-15.264,11.84c7.168-14.872,18.672-27.664,33.512-36.232
				c12.672-7.32,27.16-11.176,41.896-11.176c0.064,0,0.144,0,0.2,0l13.944,0.032l-7-12.056C167.928,193.248,164,178.712,164,164
				c0-17.144,5.32-33.496,14.616-47.144C176.904,123.024,176,129.456,176,136c0,39.696,32.296,72,72,72
				c1.688,0,3.36-0.232,5.04-0.352L244.312,216.376z M319.648,141.04c0.12-1.68,0.352-3.352,0.352-5.04
				c0-6.576-0.912-13.048-2.648-19.24c3.72,5.424,6.624,11.384,8.992,17.584L319.648,141.04z M338.656,122.032
				c-11.04-23.632-31.184-42.52-55.864-51.696L272,66.328V85.24l3.992,2.312C293.264,97.56,304,116.128,304,136
				c0,10.112-2.816,20.024-8.08,28.76l-19.168,19.168C268.024,189.184,258.112,192,248,192c-30.872,0-56-25.12-56-56
				c0-19.872,10.736-38.44,28.008-48.448L224,85.24V66.328l-10.792,4.008C174.208,84.832,148,122.48,148,164
				c0,13.336,2.712,26.552,7.904,38.832c-13.224,1.64-26.032,5.896-37.576,12.56c-35.96,20.768-55.464,62.28-48.512,103.312
				l1.92,11.336l16.384-9.432l0.008-4.616c0.032-19.968,10.744-38.544,27.952-48.48c22.24-12.848,50.216-8.648,67.832,9.272
				l-93.856,93.848C62.872,335.656,48,292.44,48,248c0-110.28,89.72-200,200-200c44.44,0,87.648,14.88,122.624,42.056
				L338.656,122.032z"/>
			<path d="M405.944,125.368C433.128,160.344,448,203.56,448,248c0,35.16-9.248,69.736-26.752,100l13.84,8.008
				C454.008,323.32,464,285.968,464,248c0-51.136-18.232-100.76-51.352-139.736l-5.616-6.616L137.16,371.528h-0.008l-18.168,18.168
				h0.008l-17.344,17.344l6.608,5.616C147.24,445.768,196.864,464,248,464c70,0,135.96-34.16,176.448-91.376l-13.064-9.24
				C373.888,416.368,312.816,448,248,448c-44.44,0-87.648-14.88-122.624-42.056l9.816-9.816c10.904,3.864,22.16,5.904,33.392,5.896
				c17.208,0,34.304-4.504,49.752-13.424c11.544-6.664,21.64-15.624,29.672-26.264c8.032,10.64,18.128,19.6,29.672,26.272
				c35.968,20.768,81.664,16.888,113.728-9.648l8.864-7.336l-16.384-9.464l-4,2.304c-17.304,9.96-38.752,9.968-55.96,0.032
				c-12.952-7.48-22.216-19.552-26.088-34s-1.88-29.544,5.592-42.496c7.472-12.952,19.552-22.216,34-26.088
				c14.464-3.864,29.544-1.88,42.496,5.592c17.208,9.936,27.92,28.512,27.952,48.48l0.008,4.616l16.384,9.432l1.92-11.336
				c6.944-41.024-12.552-82.544-48.512-103.312c-11.56-6.672-24.392-10.936-37.64-12.568c2.192-5.296,3.872-10.912,5.184-16.728
				L405.944,125.368z M271.624,259.688c-1.6,10.264-9.672,18.336-19.936,19.936L271.624,259.688z M196.88,334.44
				c-4.312,12.464-12.904,23.192-24.8,30.056c-2.992,1.728-6.176,3.048-9.432,4.176L196.88,334.44z M369.664,229.248
				c14.84,8.568,26.352,21.352,33.512,36.232c-4.48-4.568-9.6-8.568-15.264-11.84c-34.408-19.848-78.504-8.016-98.352,26.352
				c-19.848,34.384-8.032,78.504,26.352,98.352c5.672,3.272,11.696,5.704,17.896,7.304c-16.472,1.216-33.304-2.336-48.152-10.904
				c-12.736-7.352-23.36-18.032-30.736-30.88l-6.92-12.08l-6.936,12.088c-7.376,12.84-18,23.52-30.736,30.872
				c-15.008,8.664-31.888,12.352-48.552,10.992c6.4-1.592,12.552-4.064,18.304-7.384c22.616-13.064,35.976-36.92,35.776-62.896
				l21.216-21.216c3.584,1.04,7.216,1.76,10.928,1.76c22.056,0,40-17.944,40-40c0-3.712-0.72-7.344-1.76-10.928l27.976-27.976
				l-0.592,1.016l13.944-0.04c0.072,0,0.136,0,0.2,0C342.512,218.072,356.992,221.936,369.664,229.248z"/>
		</g>
	</g>
</g>
<g>
</g>
<g>
</g>
<g>
</g>
<g>
</g>
<g>
</g>
<g>
</g>
<g>
</g>
<g>
</g>
<g>
</g>
<g>
</g>
<g>
</g>
<g>
</g>
<g>
</g>
<g>
</g>
<g>
</g>
</svg>
