<svg id="Layer_5" enable-background="new 0 0 64 64" height="512" viewBox="0 0 64 64" width="512" xmlns="http://www.w3.org/2000/svg"><g><path d="m39 51h16v-42h-16zm2-40h12v38h-12z"/><path d="m60 23h-1v-15c0-1.654-1.346-3-3-3h-15.101c-.465-2.279-2.485-4-4.899-4h-30c-2.757 0-5 2.243-5 5v48c0 2.483 1.824 4.532 4.199 4.919l1.02 4.081h7.562l1-4h12.438l1 4h7.562l1.02-4.081c2.047-.333 3.686-1.899 4.098-3.919h15.101c1.654 0 3-1.346 3-3v-15h1c1.654 0 3-1.346 3-3v-8c0-1.654-1.346-3-3-3zm-47.781 38h-4.438l-.5-2h5.438zm17.562 0-.5-2h5.438l-.5 2zm6.219-4h-30c-1.654 0-3-1.346-3-3v-48c0-1.654 1.346-3 3-3h30c1.302 0 2.402.839 2.816 2h-.816-31c-1.103 0-2 .897-2 2v46c0 1.103.897 2 2 2h31 .816c-.414 1.161-1.514 2-2.816 2zm-29-38h28v10h-28zm0 12h28v10h-28zm0 12h28v9c0 .352.072.686.184 1h-28.184zm28-35v9h-28v-10h28.184c-.112.314-.184.648-.184 1zm22 44c0 .552-.449 1-1 1h-18c-.551 0-1-.448-1-1v-44c0-.552.449-1 1-1h18c.551 0 1 .448 1 1zm4-18c0 .552-.449 1-1 1h-1v-10h1c.551 0 1 .448 1 1z"/><path d="m9 9h2v2h-2z"/><path d="m13 9h2v2h-2z"/><path d="m9 13h2v2h-2z"/><path d="m13 13h2v2h-2z"/><path d="m31 9h2v6h-2z"/><path d="m27 9h2v6h-2z"/><path d="m9 21h2v2h-2z"/><path d="m13 21h2v2h-2z"/><path d="m13 25h2v2h-2z"/><path d="m9 25h2v2h-2z"/><path d="m31 21h2v6h-2z"/><path d="m27 21h2v6h-2z"/><path d="m9 33h2v2h-2z"/><path d="m13 33h2v2h-2z"/><path d="m13 37h2v2h-2z"/><path d="m9 37h2v2h-2z"/><path d="m31 33h2v6h-2z"/><path d="m27 33h2v6h-2z"/><path d="m9 45h2v2h-2z"/><path d="m13 45h2v2h-2z"/><path d="m13 49h2v2h-2z"/><path d="m9 49h2v2h-2z"/><path d="m31 45h2v6h-2z"/><path d="m27 45h2v6h-2z"/><path d="m49 13h2v2h-2z"/><path d="m49 17h2v2h-2z"/><path d="m49 21h2v2h-2z"/></g></svg>