<?xml version="1.0"?>
<svg xmlns="http://www.w3.org/2000/svg" viewBox="0 0 64 64" width="512" height="512"><g id="Outline"><g><path d="M33.445,30.832l3,2a1,1,0,1,0,1.11-1.664l-2.462-1.642.893-5.361a1,1,0,0,0-1.693-.872l-8,8a1,1,0,0,0,.152,1.539l2.462,1.642-.893,5.361a1,1,0,0,0,1.693.872l5.086-5.086a1,1,0,0,0-1.414-1.414L30.5,37.086l.486-2.921a1,1,0,0,0-.431-1L28.57,31.845l4.93-4.931-.486,2.921A1,1,0,0,0,33.445,30.832Z"/><path d="M11.121,47.879a1,1,0,0,0,.707-1.707,4.093,4.093,0,0,0-5.656,0,1,1,0,1,0,1.414,1.414,2.047,2.047,0,0,1,2.828,0A1,1,0,0,0,11.121,47.879Z"/><path d="M13.95,45.05a1,1,0,0,0,.707-1.707,8,8,0,0,0-11.314,0,1,1,0,0,0,1.414,1.414,6,6,0,0,1,8.486,0A.993.993,0,0,0,13.95,45.05Z"/><circle cx="9" cy="50" r="1"/><path d="M60,14.184V13.89a7,7,0,1,0-10,0v.295a2.981,2.981,0,0,0,.076,5.655,4.956,4.956,0,0,0,2.079,3.254A2.965,2.965,0,0,0,52,24a3,3,0,0,0,2,2.816V33H44V31a1,1,0,0,0-2,0v9a1,1,0,0,0,1,1h2v2H18a1,1,0,0,0,0,2h5V58H17.816A3,3,0,0,0,16,56.184V55a1,1,0,0,0-1-1H14V51a1,1,0,0,0-2,0v3H6V51a1,1,0,0,0-2,0v3H3a1,1,0,0,0-1,1v4a3,3,0,0,0,3,3h5a1,1,0,0,0,0-2H5a1,1,0,0,1-1-1V56H14v.184A2.993,2.993,0,1,0,17.816,60H24a1,1,0,0,0,1-1V45h9v8a1,1,0,0,0,1,1h6.184A3,3,0,0,0,43,55.816V57a1,1,0,0,0,1,1h3v2H45a1,1,0,0,0,0,2H59a1,1,0,0,0,0-2H57V58h3a1,1,0,0,0,.394-.082c.023-.01.039-.03.061-.041a1.012,1.012,0,0,0,.268-.193c.006-.007.014-.009.02-.015a.874.874,0,0,0,.074-.125.958.958,0,0,0,.111-.188.915.915,0,0,0,.043-.213A.979.979,0,0,0,61,57V48a1,1,0,0,0-1-1H44a1,1,0,0,0-1,1v2.184A3,3,0,0,0,41.184,52H36V45H46a1,1,0,0,0,1-1V40a1,1,0,0,0-1-1H44V35H55a1,1,0,0,0,1-1V26.816A3,3,0,0,0,58,24a2.965,2.965,0,0,0-.155-.907,4.956,4.956,0,0,0,2.079-3.254A2.981,2.981,0,0,0,60,14.184ZM15,60a1,1,0,1,1,1-1A1,1,0,0,1,15,60Zm40,0H49V58h6Zm4-5.245L52.606,49H59ZM49.616,49l7.778,7H45v-.184a2.982,2.982,0,0,0,0-5.632V49ZM44,52a1,1,0,1,1-1,1A1,1,0,0,1,44,52ZM55,4a4.994,4.994,0,0,1,3.332,8.719,1,1,0,0,0-.332.744V14H56V11.414l1.707-1.707a1,1,0,0,0-1.414-1.414L55,9.586,53.707,8.293a1,1,0,0,0-1.414,1.414L54,11.414V14H52v-.537a1,1,0,0,0-.333-.745A4.994,4.994,0,0,1,55,4ZM52.178,20h5.644a2.974,2.974,0,0,1-1.176,1.5,2.974,2.974,0,0,0-3.292,0A2.974,2.974,0,0,1,52.178,20ZM55,25a1,1,0,1,1,1-1A1,1,0,0,1,55,25Zm4-7H51a1,1,0,0,1,0-2h8a1,1,0,0,1,0,2Z"/><path d="M3,28H8v5a1,1,0,0,0,1,1H20v5H18a1,1,0,0,0,0,2h3a1,1,0,0,0,1-1V27a1,1,0,0,0-1-1H17v-.415l15-8.438,4.51,2.537A1,1,0,0,0,38,18.813V17h3v4.625a1,1,0,0,0,.51.872L47,25.585V26H43a1,1,0,0,0,0,2h5a1,1,0,0,0,1-1V25a1,1,0,0,0-.51-.872L43,21.04V16a1,1,0,0,0-1-1H37a1,1,0,0,0-1,1v1.1l-3.509-1.975a1.007,1.007,0,0,0-.981,0l-16,9A1,1,0,0,0,15,25v2a1,1,0,0,0,1,1h4v4H10V27a1,1,0,0,0-1-1H4V22h9a1,1,0,0,0,1-1V19a1,1,0,0,0-2,0v1H10V16h5a1,1,0,0,0,.97-.757l3-12A1,1,0,0,0,18,2H6a1,1,0,0,0-.97.757l-3,12A1,1,0,0,0,3,16H8v4H3a1,1,0,0,0-1,1v6A1,1,0,0,0,3,28ZM5.781,8H7.719l-.5,2H5.281Zm6.938-4-.5,2H10.281l.5-2Zm2.5,6H13.281l.5-2h1.938ZM8.281,14l.5-2h1.938l-.5,2Zm2.938-4H9.281l.5-2h1.938Zm3,4H12.281l.5-2h1.938Zm2-8H14.281l.5-2h1.938ZM6.781,4H8.719l-.5,2H6.281Zm-2,8H6.719l-.5,2H4.281Z"/></g></g></svg>
