<?xml version="1.0" encoding="iso-8859-1"?>
<!-- Generator: Adobe Illustrator 19.0.0, SVG Export Plug-In . SVG Version: 6.00 Build 0)  -->
<svg version="1.1" id="Capa_1" xmlns="http://www.w3.org/2000/svg" xmlns:xlink="http://www.w3.org/1999/xlink" x="0px" y="0px"
	 viewBox="0 0 380 380" style="enable-background:new 0 0 380 380;" xml:space="preserve">
<g>
	<g>
		<g>
			<path d="M44,272c-13.2,0-24.4,10.8-24.4,24.4c0,13.2,10.8,24.4,24.4,24.4c13.2,0,24.4-10.8,24.4-24.4S57.6,272,44,272z M44,310
				c-7.6,0-14-6.4-14-14c0-7.6,6.4-14,14-14c7.6,0,14,6.4,14,14C58,304,52,310,44,310z"/>
			<path d="M123.2,165.2c-13.2,0-24.4,10.8-24.4,24.4c0,13.2,10.8,24.4,24.4,24.4c13.2,0,24.4-10.8,24.4-24.4
				C147.2,176.4,136.4,165.2,123.2,165.2z M123.2,203.6c-7.6,0-14-6.4-14-14c0-7.6,6.4-14,14-14c7.6,0,14,6.4,14,14
				C137.2,197.2,130.8,203.6,123.2,203.6z"/>
			<path d="M242,159.6c-13.2,0-24.4,10.8-24.4,24.4c0,13.2,10.8,24.4,24.4,24.4c13.2,0,24.4-10.8,24.4-24.4
				C266,170.4,255.2,159.6,242,159.6z M242,197.6c-7.6,0-14-6.4-14-14c0-7.6,6.4-14,14-14c7.6,0,14,6.4,14,14
				C255.6,191.6,249.6,197.6,242,197.6z"/>
			<path d="M334.4,38.4c-24.8,0-44.8,20-44.8,44.8c0,11.2,4.4,21.6,11.2,29.6l-32,35.6c-7.6-5.6-16.8-9.2-26.8-9.2
				c-23.6,0-42.8,18.4-44.4,41.6h-30.4c-4-20.4-22.4-35.6-43.6-35.6c-24.8,0-44.8,20-44.8,44.8c0,12.8,5.2,24,14,32.4l-26,35.6
				c-6.4-3.6-14-6-22-6C20,252,0,272,0,296.8s20,44.8,44.8,44.8c24.8,0,44.8-20,44.8-44.8c0-12.8-5.6-24.4-14.4-32.8l26-35.6
				c6.8,4,14.4,6,22.4,6c24,0,44-19.2,44.8-43.2h30c3.6,21.2,22,37.6,44,37.6c24.8,0,44.8-20,44.8-44.8c0-10.8-4-20.8-10-28.4
				l32.4-36c7.2,5.2,16,8,25.6,8c24.8,0,44.8-20,44.8-44.8C378.8,58.4,358.8,38.4,334.4,38.4z M78.4,296c0,18.8-15.2,34.4-34.4,34.4
				c-18.8,0-34.4-15.2-34.4-34.4c0-18.8,15.2-34.4,34.4-34.4C63.2,262,78.4,277.2,78.4,296z M123.2,224c-18.8,0-34.4-15.2-34.4-34.4
				c0-18.8,15.2-34.4,34.4-34.4c18.8,0,34.4,15.2,34.4,34.4C157.6,208.4,142,224,123.2,224z M242,218c-18.8,0-34.4-15.2-34.4-34.4
				c0-18.8,15.2-34.4,34.4-34.4c18.8,0,34.4,15.2,34.4,34.4C276,202.8,260.8,218,242,218z M334.4,117.2c-18.8,0-34.4-15.2-34.4-34.4
				c0-18.8,15.2-34.4,34.4-34.4c18.8,0,34.4,15.2,34.4,34.4C368.4,102,353.2,117.2,334.4,117.2z"/>
			<path d="M334.4,58.8c-13.2,0-24.4,10.8-24.4,24.4c0,13.2,10.8,24.4,24.4,24.4c13.2,0,24.4-10.8,24.4-24.4
				C358.4,69.6,347.6,58.8,334.4,58.8z M334.4,96.8c-7.6,0-14-6.4-14-14c0-7.6,6.4-14,14-14c7.6,0,14,6.4,14,14
				C348,90.8,342,96.8,334.4,96.8z"/>
		</g>
	</g>
</g>
<g>
</g>
<g>
</g>
<g>
</g>
<g>
</g>
<g>
</g>
<g>
</g>
<g>
</g>
<g>
</g>
<g>
</g>
<g>
</g>
<g>
</g>
<g>
</g>
<g>
</g>
<g>
</g>
<g>
</g>
</svg>
