<?xml version="1.0" encoding="iso-8859-1"?>
<!-- Generator: Adobe Illustrator 19.0.0, SVG Export Plug-In . SVG Version: 6.00 Build 0)  -->
<svg version="1.1" id="Capa_1" xmlns="http://www.w3.org/2000/svg" xmlns:xlink="http://www.w3.org/1999/xlink" x="0px" y="0px"
	 viewBox="0 0 512 512" style="enable-background:new 0 0 512 512;" xml:space="preserve">
<g>
	<g>
		<g>
			<path d="M320,149.333h85.333c5.888,0,10.667-4.779,10.667-10.667S411.221,128,405.333,128H320
				c-5.888,0-10.667,4.779-10.667,10.667S314.112,149.333,320,149.333z"/>
			<path d="M320,64h85.333C411.221,64,416,59.221,416,53.333s-4.779-10.667-10.667-10.667H320c-5.888,0-10.667,4.779-10.667,10.667
				S314.112,64,320,64z"/>
			<path d="M128,64c5.888,0,10.667-4.779,10.667-10.667S133.888,42.667,128,42.667c-5.888,0-10.667,4.779-10.667,10.667
				S122.112,64,128,64z"/>
			<path d="M85.333,405.333H42.667c-17.643,0-32,14.357-32,32V480c0,17.643,14.357,32,32,32h42.667c17.643,0,32-14.357,32-32
				v-42.667C117.333,419.691,102.976,405.333,85.333,405.333z M96,480c0,5.888-4.8,10.667-10.667,10.667H42.667
				C36.8,490.667,32,485.888,32,480v-42.667c0-5.888,4.8-10.667,10.667-10.667h42.667c5.867,0,10.667,4.779,10.667,10.667V480z"/>
			<path d="M128,149.333c5.888,0,10.667-4.779,10.667-10.667S133.888,128,128,128c-5.888,0-10.667,4.779-10.667,10.667
				S122.112,149.333,128,149.333z"/>
			<path d="M277.333,405.333h-42.667c-17.643,0-32,14.357-32,32V480c0,17.643,14.357,32,32,32h42.667c17.643,0,32-14.357,32-32
				v-42.667C309.333,419.691,294.976,405.333,277.333,405.333z M288,480c0,5.888-4.8,10.667-10.667,10.667h-42.667
				C228.8,490.667,224,485.888,224,480v-42.667c0-5.888,4.8-10.667,10.667-10.667h42.667c5.867,0,10.667,4.779,10.667,10.667V480z"
				/>
			<path d="M64,384c5.888,0,10.667-4.779,10.667-10.667v-42.667c0-17.643,14.357-32,32-32h138.667v74.667
				c0,5.888,4.779,10.667,10.667,10.667c5.888,0,10.667-4.779,10.667-10.667v-74.667h138.667c17.643,0,32,14.357,32,32v42.667
				c0,5.888,4.779,10.667,10.667,10.667c5.888,0,10.667-4.779,10.667-10.667v-42.667c0-29.397-23.915-53.333-53.333-53.333H266.667
				V224c0-5.888-4.779-10.667-10.667-10.667c-5.888,0-10.667,4.779-10.667,10.667v53.333H106.667
				c-29.419,0-53.333,23.936-53.333,53.333v42.667C53.333,379.221,58.112,384,64,384z"/>
			<path d="M469.333,405.333h-42.667c-17.643,0-32,14.357-32,32V480c0,17.643,14.357,32,32,32h42.667c17.643,0,32-14.357,32-32
				v-42.667C501.333,419.691,486.976,405.333,469.333,405.333z M480,480c0,5.888-4.8,10.667-10.667,10.667h-42.667
				C420.8,490.667,416,485.888,416,480v-42.667c0-5.888,4.8-10.667,10.667-10.667h42.667c5.867,0,10.667,4.779,10.667,10.667V480z"
				/>
			<path d="M106.667,192h320c17.643,0,32-14.357,32-32v-42.667c0-8.213-3.2-15.659-8.32-21.333c5.12-5.675,8.32-13.12,8.32-21.333
				V32c0-17.643-14.357-32-32-32h-320c-17.643,0-32,14.357-32,32v42.667c0,8.213,3.2,15.659,8.32,21.333
				c-5.12,5.675-8.32,13.12-8.32,21.333V160C74.667,177.643,89.024,192,106.667,192z M96,32c0-5.888,4.8-10.667,10.667-10.667h320
				c5.867,0,10.667,4.779,10.667,10.667v42.667c0,5.888-4.8,10.667-10.667,10.667h-320C100.8,85.333,96,80.555,96,74.667V32z
				 M96,117.333c0-5.888,4.8-10.667,10.667-10.667h320c5.867,0,10.667,4.779,10.667,10.667V160c0,5.888-4.8,10.667-10.667,10.667
				h-320C100.8,170.667,96,165.888,96,160V117.333z"/>
		</g>
	</g>
</g>
<g>
</g>
<g>
</g>
<g>
</g>
<g>
</g>
<g>
</g>
<g>
</g>
<g>
</g>
<g>
</g>
<g>
</g>
<g>
</g>
<g>
</g>
<g>
</g>
<g>
</g>
<g>
</g>
<g>
</g>
</svg>
