<svg id="Layer_1" enable-background="new 0 0 512 512" height="512" viewBox="0 0 512 512" width="512" xmlns="http://www.w3.org/2000/svg"><path d="m464 80h-256v-32c0-8.84-7.16-16-16-16h-176c-8.84 0-16 7.16-16 16v416c0 8.84 7.16 16 16 16h176c8.84 0 16-7.16 16-16v-16h208c8.836 0 16-7.164 16-16s-7.164-16-16-16h-50.883l-9.6-48h108.483c26.467 0 48-21.533 48-48v-192c0-26.467-21.533-48-48-48zm0 32c8.822 0 16 7.178 16 16v144h-272v-160zm-432 32h144v48h-144zm144-80v48h-144v-48zm0 384h-144v-224h144zm32-80h44.483l-9.6 48h-34.883zm124.483 48h-56.966l9.6-48h37.767zm131.517-80c-4.404 0-251.568 0-256 0v-32h272v16c0 8.822-7.178 16-16 16z"/><path d="m104 352c-13.23 0-24 10.77-24 24s10.77 24 24 24 24-10.77 24-24-10.77-24-24-24z"/><path d="m128 256h-48c-8.836 0-16 7.164-16 16s7.164 16 16 16h48c8.836 0 16-7.164 16-16s-7.164-16-16-16z"/></svg>