<svg id="Capa_1" enable-background="new 0 0 499.859 499.859" height="512" viewBox="0 0 499.859 499.859" width="512" xmlns="http://www.w3.org/2000/svg"><g><path d="m425.57 81.77-72.983-72.983c-5.667-5.666-13.2-8.787-21.213-8.787h-235.871c-16.542 0-30 13.458-30 30v206.092c0 12.84 20 12.859 20 0v-206.092c0-5.514 4.486-10 10-10h232.861v56.421c0 16.542 13.458 30 30 30h55.992v363.438c0 5.514-4.486 10-10 10h-308.853c-5.514 0-10-4.486-10-10v-152.97c0-12.84-20-12.859-20 0v152.971c0 16.542 13.458 30 30 30h308.854c16.542 0 30-13.458 30-30v-366.877c-.001-8.013-3.121-15.547-8.787-21.213zm-77.206-5.349v-43.572l53.572 53.572h-43.572c-5.514 0-10-4.486-10-10z"/><path d="m67.785 281.689c2.986 4.561 9.358 5.758 13.86 2.76 4.53-3.016 5.783-9.328 2.77-13.859-3.02-4.543-9.343-5.763-13.87-2.761-4.54 3.011-5.776 9.341-2.76 13.86z"/><path d="m281.745 222.432c0-5.522-4.477-10-10-10h-63.17c-5.523 0-10 4.478-10 10v40.553c0 5.522 4.477 10 10 10h12.71v31.031h-12.71c-5.523 0-10 4.478-10 10v40.553c0 5.522 4.477 10 10 10h85.88c5.523 0 10-4.478 10-10v-40.553c0-5.522-4.477-10-10-10h-12.618zm-19.908 91.584c0 5.522 4.477 10 10 10h12.618v20.553h-65.88v-20.553h12.71c5.523 0 10-4.478 10-10v-51.031c0-5.522-4.477-10-10-10h-12.71v-20.553h43.17z"/><path d="m273.763 167.975c0-17.216-14.006-31.222-31.222-31.222s-31.222 14.006-31.222 31.222 14.006 31.222 31.222 31.222 31.222-14.007 31.222-31.222zm-42.443 0c0-6.188 5.034-11.222 11.222-11.222s11.222 5.034 11.222 11.222-5.034 11.222-11.222 11.222-11.222-5.035-11.222-11.222z"/></g></svg>