<?xml version="1.0" encoding="iso-8859-1"?>
<!-- Generator: Adobe Illustrator 19.0.0, SVG Export Plug-In . SVG Version: 6.00 Build 0)  -->
<svg version="1.1" id="Layer_1" xmlns="http://www.w3.org/2000/svg" xmlns:xlink="http://www.w3.org/1999/xlink" x="0px" y="0px"
	 viewBox="0 0 512 512" style="enable-background:new 0 0 512 512;" xml:space="preserve">
<g>
	<g>
		<path d="M437.02,74.98C388.667,26.628,324.381,0,256,0C187.62,0,123.333,26.628,74.981,74.98C26.628,123.333,0,187.619,0,256
			s26.628,132.667,74.981,181.02C123.333,485.372,187.62,512,256,512c68.381,0,132.667-26.628,181.02-74.98S512,324.381,512,256
			S485.372,123.333,437.02,74.98z M183.4,33.819c-11.521,11.725-22.156,26.359-31.616,43.703
			c-9.225,16.912-16.976,35.77-23.156,56.045H56.976C85.754,86.954,130.436,51.168,183.4,33.819z M44.845,155.826h77.772
			c-6.621,27.927-10.436,57.997-11.173,89.043H22.532C24.027,213.136,31.881,183.041,44.845,155.826z M22.532,267.13h88.911
			c0.737,31.046,4.55,61.116,11.173,89.043H44.845C31.881,328.959,24.027,298.864,22.532,267.13z M56.976,378.435h71.652
			c6.179,20.275,13.931,39.134,23.156,56.045c9.46,17.343,20.095,31.977,31.616,43.703
			C130.436,460.832,85.754,425.046,56.976,378.435z M244.87,488.744c-27.333-4.848-53.111-27.467-73.543-64.925
			c-7.53-13.805-14.011-29.044-19.376-45.384h92.919V488.744z M244.87,244.87h-10.574c-6.147,0-11.13,4.984-11.13,11.13
			c0,6.146,4.983,11.13,11.13,11.13h10.574v89.043H145.51c-6.992-27.656-11.029-57.78-11.804-89.043h33.25
			c6.147,0,11.13-4.984,11.13-11.13c0-6.146-4.983-11.13-11.13-11.13h-33.25c0.775-31.263,4.812-61.388,11.804-89.043h99.359V244.87
			z M244.87,133.565H151.95c5.365-16.341,11.845-31.579,19.376-45.384c20.432-37.458,46.21-60.077,73.543-64.925V133.565z
			 M489.468,244.87h-88.911c-0.737-31.046-4.55-61.116-11.173-89.043h77.772C480.118,183.041,487.973,213.136,489.468,244.87z
			 M455.024,133.565h-71.653c-6.179-20.275-13.931-39.133-23.155-56.045c-9.46-17.343-20.095-31.977-31.617-43.703
			C381.562,51.168,426.246,86.954,455.024,133.565z M267.13,23.256c27.333,4.848,53.111,27.467,73.543,64.925
			c7.53,13.805,14.01,29.044,19.375,45.384H267.13V23.256z M267.13,155.826h99.359c6.992,27.656,11.029,57.78,11.804,89.043H267.13
			V155.826z M267.13,267.13h111.163c-0.775,31.263-4.812,61.388-11.804,89.043H267.13V267.13z M267.13,488.744V378.435h92.918
			c-5.365,16.341-11.845,31.579-19.375,45.384C320.242,461.277,294.463,483.896,267.13,488.744z M328.599,478.181
			c11.521-11.725,22.156-26.359,31.617-43.703c9.225-16.912,16.976-35.77,23.155-56.045h71.653
			C426.246,425.046,381.562,460.832,328.599,478.181z M467.155,356.174h-77.772c6.623-27.927,10.436-57.997,11.173-89.043h88.911
			C487.973,298.864,480.119,328.959,467.155,356.174z"/>
	</g>
</g>
<g>
	<g>
		<path d="M211.534,253.828c-0.134-0.711-0.356-1.414-0.634-2.091c-0.278-0.669-0.623-1.313-1.024-1.914
			c-0.401-0.613-0.868-1.181-1.38-1.693c-0.512-0.512-1.08-0.979-1.692-1.38c-0.601-0.4-1.247-0.746-1.914-1.024
			c-0.679-0.278-1.38-0.501-2.093-0.646c-1.436-0.289-2.916-0.289-4.341,0c-0.712,0.145-1.414,0.367-2.093,0.646
			c-0.668,0.278-1.313,0.624-1.914,1.024c-0.612,0.401-1.18,0.868-1.692,1.38c-2.07,2.07-3.261,4.931-3.261,7.869
			c0,0.722,0.078,1.458,0.223,2.17c0.134,0.712,0.356,1.414,0.634,2.08c0.278,0.679,0.623,1.325,1.024,1.926
			c0.401,0.612,0.868,1.18,1.38,1.692c0.512,0.512,1.08,0.981,1.692,1.38c0.601,0.401,1.247,0.746,1.914,1.024
			c0.679,0.278,1.38,0.501,2.093,0.634c0.712,0.145,1.447,0.223,2.17,0.223s1.458-0.078,2.17-0.223
			c0.712-0.134,1.414-0.356,2.081-0.634c0.679-0.278,1.325-0.623,1.926-1.024c0.612-0.4,1.18-0.868,1.692-1.38
			s0.979-1.08,1.38-1.692c0.401-0.601,0.746-1.247,1.024-1.926c0.278-0.668,0.501-1.368,0.634-2.08
			c0.145-0.713,0.223-1.448,0.223-2.17C211.757,255.275,211.679,254.54,211.534,253.828z"/>
	</g>
</g>
<g>
</g>
<g>
</g>
<g>
</g>
<g>
</g>
<g>
</g>
<g>
</g>
<g>
</g>
<g>
</g>
<g>
</g>
<g>
</g>
<g>
</g>
<g>
</g>
<g>
</g>
<g>
</g>
<g>
</g>
</svg>
