<svg id="Layer_5" enable-background="new 0 0 64 64" height="512" viewBox="0 0 64 64" width="512" xmlns="http://www.w3.org/2000/svg"><path d="m63 8c0-1.654-1.346-3-3-3h-1.382l-2-4h-15.236l-2 4h-1.382c-1.654 0-3 1.346-3 3v3h-24v4.991l-6 1.189v17.82h-4v12h6v16h8v-16h20v8h8v8h8v-8h12zm-20.382-5h12.764l1 2h-14.764zm2.796 42 8-8h1.586v8zm-2.828 0h-3.172l8-8h3.172zm-6 0h-7.172l8-8h7.172zm-23.586-10h-2v-12h2zm5.586 2-8 8h-3.172l8-8zm2.828 0h7.172l-8 8h-7.172zm10 0h3.172l-8 8h-3.172zm-6.414-2v-10h10v10zm-12-22h22v10h-12v12h-4v-20h-3l-3 .595zm-6 5.819 9.099-1.819h.901v18h-2v-14h-6v14h-2zm-4 18.181h2 7.586l-8 8h-1.586zm10 24h-4v-14h4zm24-8v-6h6v6zm8 8v-14h4v14zm16-8h-10v-6h6v-12h-20v-27c0-.552.449-1 1-1h22c.551 0 1 .448 1 1z"/><path d="m39 15h20v-6h-20zm8-2v-2h4v2zm10 0h-4v-2h4zm-16-2h4v2h-4z"/><path d="m39 23h20v-6h-20zm8-2v-2h4v2zm10 0h-4v-2h4zm-16-2h4v2h-4z"/><path d="m39 31h20v-6h-20zm8-2v-2h4v2zm10 0h-4v-2h4zm-16-2h4v2h-4z"/><path d="m33 15h-6v6h6zm-2 4h-2v-2h2z"/><path d="m27 27v6h6v-6zm4 4h-2v-2h2z"/></svg>