<?xml version="1.0" encoding="iso-8859-1"?>
<!-- Generator: Adobe Illustrator 19.0.0, SVG Export Plug-In . SVG Version: 6.00 Build 0)  -->
<svg version="1.1" id="Capa_1" xmlns="http://www.w3.org/2000/svg" xmlns:xlink="http://www.w3.org/1999/xlink" x="0px" y="0px"
	 viewBox="0 0 512.004 512.004" style="enable-background:new 0 0 512.004 512.004;" xml:space="preserve">
<g>
	<g>
		<g>
			<path d="M362.669,254.208V224c0-5.888-4.779-10.667-10.667-10.667c-5.888,0-10.667,4.779-10.667,10.667v30.208
				c0,5.888,4.779,10.667,10.667,10.667C357.89,264.875,362.669,260.096,362.669,254.208z"/>
			<path d="M394.669,255.232c5.888,0,10.667-4.779,10.667-10.667V224c0-5.888-4.779-10.667-10.667-10.667
				s-10.667,4.779-10.667,10.667v20.565C384.002,250.453,388.781,255.232,394.669,255.232z"/>
			<path d="M320.002,266.667V224c0-5.888-4.779-10.667-10.667-10.667s-10.667,4.779-10.667,10.667v42.667
				c0,5.888,4.779,10.667,10.667,10.667S320.002,272.555,320.002,266.667z"/>
			<path d="M394.669,343.445c-29.419,0-53.333,23.936-53.333,53.333s23.915,53.333,53.333,53.333s53.333-23.936,53.333-53.333
				S424.066,343.445,394.669,343.445z M394.669,428.779c-17.643,0-32-14.357-32-32c0-17.643,14.357-32,32-32s32,14.357,32,32
				C426.669,414.421,412.29,428.779,394.669,428.779z"/>
			<path d="M499.65,353.024c-2.731-1.237-5.803-1.237-8.533-0.085c-5.013,2.155-10.688,0.405-13.312-4.16
				c-2.624-4.544-1.323-10.261,3.093-13.568c2.368-1.792,3.883-4.48,4.181-7.445c0.32-2.944-0.619-5.909-2.581-8.128
				c-17.408-19.797-39.829-32.896-64.832-37.845c-2.965-0.64-6.016,0.107-8.427,1.877c-2.411,1.792-3.968,4.501-4.267,7.488
				c-0.576,5.504-5.013,9.643-10.304,9.643c-5.312,0-9.749-4.139-10.304-9.643c-0.277-2.987-1.856-5.696-4.267-7.488
				c-2.432-1.771-5.419-2.475-8.427-1.877c-25.003,4.949-47.424,18.048-64.832,37.845c-1.963,2.219-2.901,5.163-2.581,8.128
				c0.277,2.965,1.813,5.653,4.181,7.445c4.416,3.307,5.717,9.024,3.072,13.589c-2.603,4.565-8.171,6.315-13.269,4.139
				c-2.731-1.152-5.803-1.152-8.533,0.085c-2.688,1.195-4.779,3.477-5.739,6.293c-4.459,13.141-6.635,25.387-6.635,37.461
				c0,12.075,2.176,24.32,6.635,37.461c0.96,2.816,3.051,5.099,5.76,6.315c2.688,1.195,5.781,1.237,8.512,0.085
				c5.077-2.176,10.667-0.427,13.291,4.139c2.624,4.544,1.323,10.261-3.093,13.589c-2.368,1.792-3.883,4.48-4.181,7.445
				c-0.32,2.944,0.619,5.909,2.603,8.128c17.387,19.776,39.808,32.875,64.811,37.845c2.965,0.619,6.016-0.107,8.427-1.877
				c2.411-1.771,3.968-4.501,4.267-7.488c0.555-5.525,4.992-9.664,10.304-9.664c5.291,0,9.728,4.16,10.283,9.664
				c0.277,2.987,1.856,5.717,4.267,7.488c1.856,1.365,4.075,2.091,6.336,2.091c0.683,0,1.387-0.064,2.091-0.235
				c25.003-4.949,47.424-18.048,64.811-37.845c1.984-2.24,2.923-5.184,2.603-8.128c-0.277-2.965-1.813-5.675-4.181-7.445
				c-4.437-3.328-5.717-9.045-3.093-13.589c0,0,0,0,0.021,0c2.603-4.544,8.235-6.293,13.291-4.139
				c2.752,1.152,5.824,1.131,8.533-0.085c2.709-1.216,4.8-3.499,5.739-6.315c4.459-13.184,6.635-25.429,6.635-37.44
				c0-12.075-2.176-24.32-6.613-37.461C504.429,356.523,502.338,354.24,499.65,353.024z M487.789,418.432
				c-10.539-0.235-22.549,5.397-28.501,15.68c-5.952,10.261-5.376,22.741,0.64,32.469c-10.816,10.24-23.467,17.685-37.269,21.952
				c-5.333-10.261-15.915-17.109-28.011-17.109c-12.096,0-22.699,6.848-28.032,17.109c-13.803-4.245-26.453-11.712-37.269-21.952
				c6.016-9.728,6.571-22.187,0.64-32.469c-5.952-10.304-17.024-16.171-28.501-15.68c-1.899-7.509-2.816-14.656-2.816-21.653
				c0-6.976,0.939-14.123,2.837-21.653c11.52,0.469,22.549-5.376,28.48-15.659c5.973-10.283,5.397-22.763-0.619-32.491
				c10.816-10.24,23.467-17.685,37.269-21.952c5.333,10.261,15.936,17.109,28.032,17.109s22.677-6.848,28.011-17.109
				c13.803,4.245,26.453,11.712,37.269,21.952c-6.016,9.728-6.571,22.208-0.64,32.469c5.952,10.304,17.173,16.448,28.523,15.68
				c1.899,7.531,2.837,14.677,2.837,21.653C490.669,403.733,489.73,410.88,487.789,418.432z"/>
			<path d="M458.669,149.333c29.397,0,53.333-23.936,53.333-53.333V53.333C512.002,23.936,488.066,0,458.669,0H53.335
				C23.895,0,0.002,23.936,0.002,53.333V96c0,29.397,23.893,53.333,53.333,53.333h138.667v21.333H53.335
				c-29.44,0-53.333,23.936-53.333,53.333v42.667C0.002,296.064,23.895,320,53.335,320h138.667v21.333h-10.667
				c-5.888,0-10.667,4.779-10.667,10.667v10.667h-10.667c-5.888,0-10.667,4.779-10.667,10.667V384h-96
				c-5.888,0-10.667,4.779-10.667,10.667s4.779,10.667,10.667,10.667h96V416c0,5.888,4.779,10.667,10.667,10.667h85.333
				c5.888,0,10.667-4.779,10.667-10.667v-42.667c0-5.888-4.779-10.667-10.667-10.667h-10.667V352
				c0-5.888-4.779-10.667-10.667-10.667h-10.667V320h53.803c5.888,0,10.624-4.779,10.624-10.667s-4.8-10.667-10.688-10.667H53.293
				c-17.643,0-32-14.357-32-32V224c0-17.643,14.357-32,32-32h405.333c17.643,0,32,14.357,32,32v42.667
				c0,5.419-1.472,10.752-4.395,15.851c-2.923,5.12-1.152,11.648,3.968,14.571c5.035,2.88,11.605,1.152,14.549-3.968
				c4.8-8.384,7.253-17.28,7.253-26.453V224c0-29.397-23.936-53.333-53.333-53.333H213.335v-21.333H458.669z M224.002,384h10.667
				v21.333h-64V384h10.667c5.888,0,10.667-4.779,10.667-10.667v-10.667h21.333v10.667C213.335,379.221,218.114,384,224.002,384z
				 M53.335,128c-17.664,0-32-14.357-32-32V53.333c0-17.643,14.336-32,32-32h405.333c17.621,0,32,14.357,32,32V96
				c0,17.643-14.379,32-32,32H53.335z"/>
			<path d="M437.335,42.667c-5.888,0-10.667,4.779-10.667,10.667V96c0,5.888,4.779,10.667,10.667,10.667
				c5.888,0,10.667-4.779,10.667-10.667V53.333C448.002,47.445,443.223,42.667,437.335,42.667z"/>
			<path d="M448.002,254.208V224c0-5.888-4.779-10.667-10.667-10.667c-5.888,0-10.667,4.779-10.667,10.667v30.208
				c0,5.888,4.779,10.667,10.667,10.667C443.223,264.875,448.002,260.096,448.002,254.208z"/>
			<path d="M42.669,245.333c0,17.643,14.336,32,32,32c17.621,0,32-14.357,32-32c0-17.643-14.379-32-32-32
				C57.005,213.333,42.669,227.691,42.669,245.333z M85.335,245.333c0,5.888-4.821,10.667-10.667,10.667
				c-5.888,0-10.667-4.779-10.667-10.667s4.779-10.667,10.667-10.667C80.514,234.667,85.335,239.445,85.335,245.333z"/>
			<path d="M394.669,42.667c-5.888,0-10.667,4.779-10.667,10.667V96c0,5.888,4.779,10.667,10.667,10.667s10.667-4.779,10.667-10.667
				V53.333C405.335,47.445,400.557,42.667,394.669,42.667z"/>
			<path d="M352.002,42.667c-5.888,0-10.667,4.779-10.667,10.667V96c0,5.888,4.779,10.667,10.667,10.667
				c5.888,0,10.667-4.779,10.667-10.667V53.333C362.669,47.445,357.89,42.667,352.002,42.667z"/>
			<path d="M74.669,42.667c-17.664,0-32,14.357-32,32c0,17.643,14.336,32,32,32c17.621,0,32-14.357,32-32
				C106.669,57.024,92.29,42.667,74.669,42.667z M74.669,85.333c-5.888,0-10.667-4.779-10.667-10.667S68.781,64,74.669,64
				c5.845,0,10.667,4.779,10.667,10.667S80.514,85.333,74.669,85.333z"/>
			<path d="M309.335,42.667c-5.888,0-10.667,4.779-10.667,10.667V96c0,5.888,4.779,10.667,10.667,10.667s10.667-4.779,10.667-10.667
				V53.333C320.002,47.445,315.223,42.667,309.335,42.667z"/>
		</g>
	</g>
</g>
<g>
</g>
<g>
</g>
<g>
</g>
<g>
</g>
<g>
</g>
<g>
</g>
<g>
</g>
<g>
</g>
<g>
</g>
<g>
</g>
<g>
</g>
<g>
</g>
<g>
</g>
<g>
</g>
<g>
</g>
</svg>
