<?xml version="1.0" encoding="iso-8859-1"?>
<!-- Generator: Adobe Illustrator 19.0.0, SVG Export Plug-In . SVG Version: 6.00 Build 0)  -->
<svg version="1.1" id="Layer_1" xmlns="http://www.w3.org/2000/svg" xmlns:xlink="http://www.w3.org/1999/xlink" x="0px" y="0px"
	 viewBox="0 0 512 512" style="enable-background:new 0 0 512 512;" xml:space="preserve">
<g>
	<g>
		<path d="M406.061,105.935c-38.078-38.078-100.037-38.076-138.116,0.001c-29.543,29.545-37.037,74.582-18.648,112.071
			c2.432,4.958,8.422,7.007,13.382,4.574c4.958-2.432,7.006-8.424,4.574-13.381c-14.623-29.811-8.662-65.626,14.834-89.122
			c30.279-30.28,79.551-30.282,109.832,0c30.281,30.281,30.281,79.551,0,109.832c-23.449,23.45-59.215,29.437-88.994,14.896
			c-4.967-2.423-10.951-0.364-13.373,4.599s-0.364,10.95,4.599,13.373c13.637,6.658,28.269,9.894,42.789,9.894
			c25.358,0,50.373-9.871,69.121-28.62C444.139,205.973,444.139,144.014,406.061,105.935z"/>
	</g>
</g>
<g>
	<g>
		<path d="M282.124,229.991c-3.873-3.939-10.233-3.964-14.17-0.093c-3.938,3.872-3.992,10.204-0.12,14.141
			c1.957,1.992,4.543,2.99,7.132,2.99c2.53,0,5.062-0.954,7.009-2.869l0.058-0.057C285.971,240.231,285.996,233.928,282.124,229.991
			z"/>
	</g>
</g>
<g>
	<g>
		<path d="M507.226,207.695l-30.706-18.835v-27.732l30.706-18.835c4.193-2.572,5.893-7.81,4.01-12.352L492.05,83.65
			c-1.883-4.542-6.789-7.044-11.567-5.896l-35.03,8.395L425.85,66.548l8.395-35.03c1.145-4.781-1.354-9.686-5.896-11.568
			l-46.29-19.186c-4.545-1.884-9.783-0.184-12.353,4.009L350.87,35.478h-27.731L304.304,4.773
			c-2.574-4.193-7.811-5.893-12.353-4.009l-46.29,19.186c-4.542,1.882-7.042,6.787-5.896,11.568l8.395,35.03l-19.602,19.601
			l-35.03-8.395c-4.778-1.145-9.685,1.354-11.567,5.896l-19.186,46.29c-1.883,4.543-0.182,9.782,4.01,12.352l30.706,18.835v27.732
			l-30.706,18.835c-4.193,2.572-5.893,7.81-4.01,12.352l19.186,46.29c1.883,4.542,6.788,7.044,11.567,5.896l35.03-8.395
			l19.602,19.601l-8.395,35.03c-1.145,4.781,1.354,9.686,5.896,11.567l46.29,19.186c4.543,1.883,9.783,0.183,12.353-4.009
			l18.835-30.706h27.731l18.835,30.706c1.867,3.043,5.137,4.773,8.528,4.773c1.281,0,2.579-0.247,3.826-0.764l46.29-19.186
			c4.542-1.882,7.042-6.787,5.896-11.567l-8.395-35.03l19.602-19.601l35.03,8.395c4.779,1.146,9.685-1.354,11.567-5.896
			l19.186-46.29C513.119,215.504,511.418,210.265,507.226,207.695z M476.842,250.796l-32.175-7.71
			c-3.379-0.811-6.941,0.194-9.401,2.653l-27.518,27.517c-2.459,2.46-3.464,6.02-2.653,9.402l7.71,32.174l-30.518,12.648
			l-17.297-28.199c-1.818-2.964-5.046-4.771-8.524-4.771h-38.926c-3.478,0-6.706,1.807-8.524,4.771l-17.297,28.199l-30.518-12.648
			l7.71-32.174c0.811-3.382-0.194-6.943-2.653-9.402l-27.518-27.517c-2.459-2.459-6.02-3.463-9.401-2.653l-32.174,7.71
			l-12.647-30.518l28.198-17.297c2.964-1.818,4.771-5.046,4.771-8.524v-38.926c0-3.478-1.806-6.706-4.771-8.524L184.52,129.71
			l12.647-30.518l32.174,7.71c3.379,0.809,6.941-0.194,9.401-2.653l27.518-27.517c2.459-2.46,3.464-6.02,2.653-9.402l-7.71-32.174
			l30.518-12.648l17.297,28.199c1.818,2.964,5.046,4.771,8.524,4.771h38.926c3.477,0,6.706-1.806,8.524-4.771l17.297-28.199
			l30.518,12.648l-7.71,32.174c-0.811,3.382,0.194,6.943,2.653,9.402l27.518,27.517c2.459,2.459,6.02,3.462,9.401,2.653l32.175-7.71
			l12.647,30.518l-28.198,17.297c-2.964,1.818-4.771,5.046-4.771,8.524v38.926c0,3.478,1.806,6.706,4.771,8.524l28.198,17.297
			L476.842,250.796z"/>
	</g>
</g>
<g>
	<g>
		<path d="M252.459,368.298c-0.005-4.916-3.586-9.099-8.442-9.865l-22.88-3.609l-6.022-14.494l13.586-18.759
			c2.884-3.982,2.446-9.469-1.033-12.942l-24.505-24.463c-3.481-3.475-8.971-3.903-12.947-1.009l-18.729,13.626l-14.516-5.995
			l-3.657-22.872c-0.776-4.853-4.962-8.421-9.875-8.421c-0.004,0-0.009,0-0.013,0l-34.625,0.045
			c-4.917,0.006-9.099,3.586-9.865,8.442l-3.608,22.879l-14.495,6.022l-18.758-13.586c-3.982-2.883-9.468-2.445-12.942,1.034
			L24.67,308.836c-3.475,3.48-3.903,8.971-1.009,12.947l13.626,18.729l-5.994,14.515l-22.872,3.658
			c-4.857,0.777-8.428,4.97-8.421,9.888l0.045,34.625c0.006,4.916,3.586,9.099,8.442,9.865l22.879,3.609l6.022,14.494
			l-13.586,18.759c-2.884,3.982-2.446,9.469,1.033,12.942l24.505,24.463c3.48,3.474,8.97,3.902,12.947,1.009l18.729-13.626
			l14.516,5.994l3.657,22.872c0.776,4.853,4.962,8.421,9.875,8.421c0.004,0,0.009,0,0.013,0l34.625-0.044
			c4.917-0.006,9.098-3.586,9.865-8.442l3.609-22.879l14.494-6.022l18.76,13.586c3.98,2.883,9.467,2.446,12.941-1.034l24.463-24.505
			c3.475-3.481,3.903-8.971,1.01-12.947l-13.626-18.73l5.994-14.515l22.871-3.658c4.857-0.777,8.427-4.969,8.421-9.887
			L252.459,368.298z M212.527,397.602c-3.435,0.55-6.336,2.844-7.664,6.058l-10.268,24.862c-1.327,3.215-0.89,6.888,1.156,9.7
			l11.896,16.352l-12.4,12.421l-16.381-11.864c-2.816-2.04-6.489-2.47-9.702-1.136l-24.832,10.317
			c-3.211,1.335-5.499,4.242-6.041,7.677l-3.151,19.978l-17.552,0.023l-3.193-19.967c-0.55-3.434-2.844-6.336-6.059-7.664
			l-24.862-10.267c-1.229-0.507-2.525-0.757-3.815-0.757c-2.082,0-4.147,0.65-5.883,1.909L57.426,467.14l-12.421-12.4l11.862-16.38
			c2.04-2.817,2.471-6.491,1.136-9.702l-10.317-24.833c-1.334-3.211-4.241-5.499-7.677-6.041l-19.977-3.151l-0.023-17.552
			l19.968-3.193c3.435-0.549,6.337-2.843,7.664-6.058l10.267-24.862c1.327-3.214,0.889-6.887-1.157-9.699l-11.895-16.351
			l12.4-12.421l16.379,11.864c2.817,2.041,6.491,2.471,9.703,1.136l24.833-10.317c3.211-1.334,5.499-4.241,6.041-7.677l3.15-19.978
			l17.552-0.022l3.193,19.967c0.55,3.435,2.844,6.337,6.058,7.664l24.862,10.268c3.216,1.327,6.887,0.889,9.7-1.156l16.352-11.895
			l12.421,12.4l-11.862,16.38c-2.04,2.817-2.471,6.491-1.136,9.702l10.317,24.833c1.334,3.211,4.241,5.499,7.677,6.041l19.978,3.151
			l0.022,17.552L212.527,397.602z"/>
	</g>
</g>
<g>
	<g>
		<path d="M171.504,340.495c-14.154-14.154-33.672-20.791-53.54-18.208c-5.477,0.712-9.34,5.729-8.628,11.206
			c0.713,5.477,5.731,9.342,11.206,8.627c13.665-1.777,27.088,2.786,36.819,12.518c8.312,8.31,12.887,19.358,12.887,31.111
			s-4.577,22.801-12.887,31.112c-8.31,8.31-19.358,12.886-31.111,12.886s-22.8-4.577-31.111-12.887
			c-9.974-9.974-14.492-23.706-12.397-37.677c0.819-5.462-2.945-10.554-8.407-11.372c-5.462-0.817-10.552,2.946-11.371,8.407
			c-3,20.013,3.742,40.493,18.034,54.785c12.087,12.088,28.159,18.745,45.253,18.745c17.094,0,33.165-6.657,45.252-18.744
			c12.087-12.087,18.744-28.159,18.744-45.253S183.592,352.582,171.504,340.495z"/>
	</g>
</g>
<g>
	<g>
		<path d="M95.265,340.403c-3.896-3.914-10.227-3.928-14.142-0.032l-0.109,0.109c-3.913,3.896-3.927,10.228-0.031,14.141
			c1.954,1.963,4.521,2.945,7.087,2.945c2.552,0,5.105-0.971,7.056-2.913l0.109-0.109C99.146,350.648,99.16,344.316,95.265,340.403z
			"/>
	</g>
</g>
<g>
</g>
<g>
</g>
<g>
</g>
<g>
</g>
<g>
</g>
<g>
</g>
<g>
</g>
<g>
</g>
<g>
</g>
<g>
</g>
<g>
</g>
<g>
</g>
<g>
</g>
<g>
</g>
<g>
</g>
</svg>
