<?xml version="1.0" encoding="iso-8859-1"?>
<!-- Generator: Adobe Illustrator 19.0.0, SVG Export Plug-In . SVG Version: 6.00 Build 0)  -->
<svg version="1.1" id="Capa_1" xmlns="http://www.w3.org/2000/svg" xmlns:xlink="http://www.w3.org/1999/xlink" x="0px" y="0px"
	 viewBox="0 0 512 512" style="enable-background:new 0 0 512 512;" xml:space="preserve">
<g>
	<g>
		<path d="M490.667,320h-64v-74.667c0-5.896-4.771-10.667-10.667-10.667H288V224c0-5.896-4.771-10.667-10.667-10.667h-10.667
			v-42.667h64c29.417,0,53.333-23.927,53.333-53.333c0-22.789-14.431-42.137-34.587-49.756C341.096,28.668,306.889,0,266.667,0
			c-30.378,0-58.355,16.643-73.507,42.803c-0.393-0.008-0.767-0.137-1.16-0.137c-35.292,0-64,28.708-64,64c0,35.292,28.708,64,64,64
			h53.333v42.667h-10.667c-5.896,0-10.667,4.771-10.667,10.667v10.667H96c-5.896,0-10.667,4.771-10.667,10.667V320h-64
			C9.563,320,0,329.573,0,341.333V448c0,11.76,9.563,21.333,21.333,21.333h64v21.333H64c-5.896,0-10.667,4.771-10.667,10.667
			C53.333,507.229,58.104,512,64,512h64c5.896,0,10.667-4.771,10.667-10.667c0-5.896-4.771-10.667-10.667-10.667h-21.333v-21.333h64
			C182.438,469.333,192,459.76,192,448V341.333c0-11.76-9.563-21.333-21.333-21.333h-64v-64H224v10.667
			c0,5.896,4.771,10.667,10.667,10.667h42.667c5.896,0,10.667-4.771,10.667-10.667V256h117.333v64h-64
			C329.563,320,320,329.573,320,341.333V448c0,11.76,9.563,21.333,21.333,21.333h64v21.333H384c-5.896,0-10.667,4.771-10.667,10.667
			c0,5.896,4.771,10.667,10.667,10.667h64c5.896,0,10.667-4.771,10.667-10.667c0-5.896-4.771-10.667-10.667-10.667h-21.333v-21.333
			h64C502.438,469.333,512,459.76,512,448V341.333C512,329.573,502.438,320,490.667,320z M170.667,341.333V448h0.021l-0.021,10.667
			V448H21.333V341.333H170.667z M192,149.333c-23.521,0-42.667-19.135-42.667-42.667S168.479,64,192,64
			c13.542,0,26,6.219,34.146,17.063c3.521,4.719,10.208,5.656,14.938,2.125c4.708-3.542,5.646-10.229,2.104-14.938
			c-7.133-9.505-16.917-16.371-27.76-20.681c11.932-16.181,30.861-26.236,51.24-26.236c27.587,0,51.536,17.991,60.169,43.439
			C322.848,66.316,320,70.13,320,74.667c0,5.896,4.771,10.667,10.667,10.667c17.646,0,32,14.354,32,32c0,17.646-14.354,32-32,32H192
			z M266.667,256h-21.333v-21.333h21.333V256z M490.667,458.667V448H341.333V341.333h149.333V448h0.021L490.667,458.667z"/>
	</g>
</g>
<g>
</g>
<g>
</g>
<g>
</g>
<g>
</g>
<g>
</g>
<g>
</g>
<g>
</g>
<g>
</g>
<g>
</g>
<g>
</g>
<g>
</g>
<g>
</g>
<g>
</g>
<g>
</g>
<g>
</g>
</svg>
