<svg id="Capa_1" enable-background="new 0 0 499.732 499.732" height="512" viewBox="0 0 499.732 499.732" width="512" xmlns="http://www.w3.org/2000/svg"><g><path d="m293.314 7.753c-4.998-4.999-11.645-7.753-18.716-7.753h-194.199c-14.594 0-26.467 11.873-26.467 26.467v362.148c0 14.594 11.873 26.466 26.467 26.466h14.856v14.857c0 14.594 11.873 26.467 26.467 26.467h16.857v16.861c0 14.594 11.873 26.466 26.467 26.466h254.288c14.594 0 26.466-11.872 26.466-26.466v-112.197c0-12.84-20-12.858-20 0v112.197c0 3.565-2.9 6.466-6.466 6.466h-254.288c-3.565 0-6.467-2.9-6.467-6.466v-362.148c0-3.565 2.901-6.467 6.467-6.467h189.954v44.687c0 14.594 11.873 26.466 26.467 26.466h44.333v104.52c0 12.84 20 12.858 20 0v-109.117c0-7.07-2.753-13.716-7.751-18.715zm-212.915 387.328c-3.565 0-6.467-2.9-6.467-6.466v-362.148c0-3.565 2.901-6.467 6.467-6.467h194.199c1.728 0 3.351.672 4.572 1.895l19.429 19.429h-176.877c-14.594 0-26.467 11.873-26.467 26.467v327.291h-14.856zm58.181-283.963v325.287h-16.857c-3.565 0-6.467-2.901-6.467-6.467v-362.148c0-3.565 2.901-6.467 6.467-6.467h194.199c1.727 0 3.351.673 4.572 1.895l21.434 21.434h-176.882c-14.593-.001-26.466 11.872-26.466 26.466zm236.42 38.22v-31.609l38.075 38.075h-31.608c-3.565 0-6.467-2.901-6.467-6.466z"/><path d="m207.542 215.565h69.067c12.84 0 12.858-20 0-20h-69.067c-12.84 0-12.858 20 0 20z"/><path d="m380.008 237.456h-172.466c-12.84 0-12.858 20 0 20h172.466c12.84 0 12.859-20 0-20z"/><path d="m380.008 281.954h-172.466c-12.84 0-12.858 20 0 20h172.466c12.84 0 12.859-20 0-20z"/><path d="m380.008 325.148h-172.466c-12.84 0-12.858 20 0 20h172.466c12.84 0 12.859-20 0-20z"/><path d="m380.008 368.343h-172.466c-12.84 0-12.858 20 0 20h172.466c12.84 0 12.859-20 0-20z"/><path d="m443.051 315.771c-3.023-4.531-9.341-5.779-13.87-2.761-4.543 3.028-5.766 9.336-2.76 13.87 3.014 4.547 9.343 5.766 13.869 2.76 4.566-3.032 5.734-9.32 2.761-13.869z"/></g></svg>