<?xml version="1.0" encoding="iso-8859-1"?>
<!-- Generator: Adobe Illustrator 19.0.0, SVG Export Plug-In . SVG Version: 6.00 Build 0)  -->
<svg xmlns="http://www.w3.org/2000/svg" xmlns:xlink="http://www.w3.org/1999/xlink" version="1.1" id="Layer_1" x="0px" y="0px" viewBox="0 0 512 512" style="enable-background:new 0 0 512 512;" xml:space="preserve">
<g>
	<g>
		<path d="M510.779,389.944l0.096-0.048l-41.542-83.083V106.667c0-23.531-19.135-42.667-42.667-42.667H85.333    c-23.531,0-42.667,19.135-42.667,42.667v200.146L1.125,389.896l0.096,0.048C0.499,391.383,0,392.945,0,394.667v10.667    C0,428.865,19.135,448,42.667,448h426.667C492.865,448,512,428.865,512,405.333v-10.667    C512,392.945,511.501,391.383,510.779,389.944z M64,106.667c0-11.76,9.573-21.333,21.333-21.333h341.333    c11.76,0,21.333,9.573,21.333,21.333v192H64V106.667z M59.927,320h392.146l32,64h-174.74c-2.833,0-5.542,1.125-7.542,3.125    l-7.542,7.542h-76.5l-7.542-7.542c-2-2-4.708-3.125-7.542-3.125H27.927L59.927,320z M469.333,426.667H42.667    c-11.76,0-21.333-9.573-21.333-21.333H198.25l7.542,7.542c2,2,4.708,3.125,7.542,3.125h85.333c2.833,0,5.542-1.125,7.542-3.125    l7.542-7.542h176.917C490.667,417.094,481.094,426.667,469.333,426.667z"/>
	</g>
</g>
<g>
</g>
<g>
</g>
<g>
</g>
<g>
</g>
<g>
</g>
<g>
</g>
<g>
</g>
<g>
</g>
<g>
</g>
<g>
</g>
<g>
</g>
<g>
</g>
<g>
</g>
<g>
</g>
<g>
</g>
</svg>
