<?xml version="1.0"?>
<svg xmlns="http://www.w3.org/2000/svg" viewBox="0 0 512 512" width="512" height="512"><g id="Computer"><path d="M464,80H48A40.045,40.045,0,0,0,8,120V328a40.045,40.045,0,0,0,40,40H198.161L191.5,400H152a8,8,0,0,0-8,8v24a8,8,0,0,0,8,8H360a8,8,0,0,0,8-8V408a8,8,0,0,0-8-8H318.778l-5.334-32H464a40.045,40.045,0,0,0,40-40V120A40.045,40.045,0,0,0,464,80ZM24,120A24.027,24.027,0,0,1,48,96H464a24.028,24.028,0,0,1,24,24V296H24ZM352,424H160v-8H352Zm-49.443-24H207.839l6.666-32h82.718ZM488,328a24.028,24.028,0,0,1-24,24H48a24.027,24.027,0,0,1-24-24V312H488Z"/><path d="M48,336h56a8,8,0,0,0,0-16H48a8,8,0,0,0,0,16Z"/><path d="M128,336h8a8,8,0,0,0,0-16h-8a8,8,0,0,0,0,16Z"/></g></svg>
